<svg xmlns="http://www.w3.org/2000/svg" viewBox="0 0 480 360" role="img" aria-label="Rahmschnitzel mit Pilzen">
  <defs>
    <radialGradient id="plate" cx="48%" cy="44%" r="66%">
      <stop offset="0" stop-color="#fffaf3"/>
      <stop offset="0.74" stop-color="#f5e9da"/>
      <stop offset="1" stop-color="#dfd0ba"/>
    </radialGradient>
    <linearGradient id="crumb" x1="0" x2="1" y1="0" y2="1">
      <stop offset="0" stop-color="#da9850"/>
      <stop offset="0.52" stop-color="#af6530"/>
      <stop offset="1" stop-color="#84442a"/>
    </linearGradient>
    <filter id="grain" x="-20%" y="-20%" width="140%" height="140%">
      <feTurbulence baseFrequency="0.9" numOctaves="3" seed="24"/>
      <feColorMatrix type="saturate" values="0"/>
      <feComponentTransfer><feFuncA type="table" tableValues="0 0.15"/></feComponentTransfer>
      <feBlend in2="SourceGraphic" mode="multiply"/>
    </filter>
    <filter id="shadow" x="-20%" y="-20%" width="140%" height="140%">
      <feDropShadow dx="0" dy="15" flood-color="#4c311f" flood-opacity="0.18" stdDeviation="17"/>
    </filter>
  </defs>
  <rect width="480" height="360" fill="#f5e9da"/>
  <path d="M0 0h480v360H0z" fill="#fffaf3" filter="url(#grain)"/>
  <ellipse cx="240" cy="184" rx="192" ry="128" fill="url(#plate)" filter="url(#shadow)"/>
  <ellipse cx="240" cy="184" rx="156" ry="100" fill="#fffaf3" opacity="0.72"/>
  <path d="M144 117c41-34 116-26 153 7 31 28 34 73 5 103-39 40-115 43-158 7-42-35-41-82 0-117z" fill="url(#crumb)" filter="url(#shadow)"/>
  <path d="M166 130c31-22 88-17 115 7 23 21 25 53 3 75-29 30-87 31-119 5-31-26-31-61 1-87z" fill="#d69a51" opacity="0.42"/>
  <path d="M176 162c37-18 112-9 147 15 33 23 10 58-37 67-47 10-118-4-139-27-24-26-6-37 29-55z" fill="#d9b78f" opacity="0.9"/>
  <g fill="#7a5735">
    <ellipse cx="213" cy="169" rx="18" ry="10" transform="rotate(-15 213 169)"/>
    <ellipse cx="269" cy="177" rx="17" ry="10" transform="rotate(12 269 177)"/>
    <ellipse cx="237" cy="215" rx="18" ry="10" transform="rotate(23 237 215)"/>
    <ellipse cx="306" cy="211" rx="16" ry="9" transform="rotate(-21 306 211)"/>
  </g>
  <g fill="#fff0ce" opacity="0.6">
    <circle cx="190" cy="201" r="5"/>
    <circle cx="253" cy="191" r="4"/>
    <circle cx="288" cy="229" r="4"/>
  </g>
  <g transform="translate(314 84)" filter="url(#shadow)">
    <rect x="0" y="70" width="102" height="23" rx="11" fill="#55623b"/>
    <rect x="10" y="42" width="88" height="22" rx="11" fill="#68774a"/>
    <rect x="2" y="16" width="96" height="23" rx="11" fill="#55623b"/>
  </g>
  <g fill="#7b4a23" opacity="0.42">
    <circle cx="184" cy="146" r="3"/>
    <circle cx="246" cy="134" r="4"/>
    <circle cx="296" cy="154" r="3"/>
  </g>
</svg>
