<svg xmlns="http://www.w3.org/2000/svg" viewBox="0 0 480 360" role="img" aria-label="Schnitzel mit Gurkensalat und Preiselbeeren">
  <defs>
    <radialGradient id="plate" cx="48%" cy="46%" r="66%">
      <stop offset="0" stop-color="#fffaf3"/>
      <stop offset="0.72" stop-color="#f5e9da"/>
      <stop offset="1" stop-color="#dfd0ba"/>
    </radialGradient>
    <linearGradient id="crumb" x1="0" x2="1" y1="0" y2="1">
      <stop offset="0" stop-color="#e4a85b"/>
      <stop offset="0.55" stop-color="#bd7337"/>
      <stop offset="1" stop-color="#8a4527"/>
    </linearGradient>
    <filter id="grain" x="-20%" y="-20%" width="140%" height="140%">
      <feTurbulence baseFrequency="0.86" numOctaves="3" seed="31"/>
      <feColorMatrix type="saturate" values="0"/>
      <feComponentTransfer><feFuncA type="table" tableValues="0 0.14"/></feComponentTransfer>
      <feBlend in2="SourceGraphic" mode="multiply"/>
    </filter>
    <filter id="shadow" x="-20%" y="-20%" width="140%" height="140%">
      <feDropShadow dx="0" dy="15" flood-color="#4c311f" flood-opacity="0.18" stdDeviation="17"/>
    </filter>
  </defs>
  <rect width="480" height="360" fill="#f5e9da"/>
  <path d="M0 0h480v360H0z" fill="#fffaf3" filter="url(#grain)"/>
  <ellipse cx="240" cy="184" rx="192" ry="128" fill="url(#plate)" filter="url(#shadow)"/>
  <ellipse cx="240" cy="184" rx="157" ry="101" fill="#fffaf3" opacity="0.72"/>
  <path d="M126 145c28-43 101-56 150-34 43 19 64 58 49 96-19 48-90 77-149 58-59-19-79-75-50-120z" fill="url(#crumb)" filter="url(#shadow)"/>
  <path d="M148 150c22-31 77-41 114-25 33 15 49 44 37 72-14 36-68 58-113 43-45-14-60-56-38-90z" fill="#dda357" opacity="0.43"/>
  <g fill="#70411f" opacity="0.45">
    <circle cx="189" cy="154" r="3"/>
    <circle cx="238" cy="135" r="4"/>
    <circle cx="294" cy="175" r="3"/>
    <circle cx="257" cy="229" r="3"/>
    <circle cx="165" cy="211" r="4"/>
    <circle cx="219" cy="199" r="2.5"/>
  </g>
  <g transform="translate(304 132)" filter="url(#shadow)">
    <ellipse cx="54" cy="54" rx="68" ry="49" fill="#dfe9bd"/>
    <g fill="#55623b">
      <ellipse cx="25" cy="45" rx="24" ry="9" transform="rotate(-23 25 45)"/>
      <ellipse cx="58" cy="30" rx="24" ry="9" transform="rotate(14 58 30)"/>
      <ellipse cx="87" cy="56" rx="24" ry="9" transform="rotate(-10 87 56)"/>
      <ellipse cx="47" cy="75" rx="24" ry="9" transform="rotate(17 47 75)"/>
    </g>
    <g fill="#f5e9da" opacity="0.46">
      <ellipse cx="25" cy="45" rx="11" ry="4" transform="rotate(-23 25 45)"/>
      <ellipse cx="58" cy="30" rx="11" ry="4" transform="rotate(14 58 30)"/>
      <ellipse cx="87" cy="56" rx="11" ry="4" transform="rotate(-10 87 56)"/>
    </g>
  </g>
  <g transform="translate(316 78) rotate(10)">
    <path d="M40 0a40 40 0 0 1 0 80V0z" fill="#f4cf62"/>
    <path d="M40 8a32 32 0 0 1 0 64" fill="none" stroke="#fff7b5" stroke-width="7"/>
    <path d="M40 0a40 40 0 0 1 0 80" fill="none" stroke="#d96c3b" stroke-width="4"/>
  </g>
  <g transform="translate(124 232)" filter="url(#shadow)">
    <circle cx="21" cy="21" r="21" fill="#9d2d2d"/>
    <circle cx="13" cy="16" r="5" fill="#c5483d"/>
    <circle cx="27" cy="27" r="4" fill="#6e1f24"/>
  </g>
</svg>
