<svg xmlns="http://www.w3.org/2000/svg" viewBox="0 0 480 360" role="img" aria-label="Schnitzel mit Kartoffelsalat">
  <defs>
    <radialGradient id="plate" cx="52%" cy="45%" r="64%">
      <stop offset="0" stop-color="#fffaf3"/>
      <stop offset="0.72" stop-color="#f5e9da"/>
      <stop offset="1" stop-color="#dfd0ba"/>
    </radialGradient>
    <linearGradient id="crumb" x1="0" x2="1" y1="0" y2="1">
      <stop offset="0" stop-color="#e1aa57"/>
      <stop offset="0.54" stop-color="#bd7435"/>
      <stop offset="1" stop-color="#8e4b2b"/>
    </linearGradient>
    <filter id="grain" x="-20%" y="-20%" width="140%" height="140%">
      <feTurbulence baseFrequency="0.8" numOctaves="3" seed="18"/>
      <feColorMatrix type="saturate" values="0"/>
      <feComponentTransfer><feFuncA type="table" tableValues="0 0.14"/></feComponentTransfer>
      <feBlend in2="SourceGraphic" mode="multiply"/>
    </filter>
    <filter id="shadow" x="-20%" y="-20%" width="140%" height="140%">
      <feDropShadow dx="0" dy="14" flood-color="#4c311f" flood-opacity="0.17" stdDeviation="16"/>
    </filter>
  </defs>
  <rect width="480" height="360" fill="#f5e9da"/>
  <path d="M0 0h480v360H0z" fill="#fffaf3" filter="url(#grain)"/>
  <ellipse cx="240" cy="182" rx="192" ry="128" fill="url(#plate)" filter="url(#shadow)"/>
  <ellipse cx="240" cy="182" rx="157" ry="101" fill="#fffaf3" opacity="0.74"/>
  <path d="M123 131c31-41 106-45 153-17 41 24 56 66 35 102-26 45-101 66-157 41-56-25-63-83-31-126z" fill="url(#crumb)" filter="url(#shadow)"/>
  <path d="M143 139c24-29 80-33 116-12 32 18 44 50 28 76-20 34-77 50-119 31-43-19-49-63-25-95z" fill="#dfaa59" opacity="0.42"/>
  <g fill="#70421f" opacity="0.48">
    <circle cx="174" cy="151" r="3"/>
    <circle cx="219" cy="132" r="4"/>
    <circle cx="278" cy="174" r="3"/>
    <circle cx="239" cy="223" r="4"/>
    <circle cx="154" cy="210" r="3"/>
    <circle cx="198" cy="194" r="2.5"/>
  </g>
  <g transform="translate(302 136)" filter="url(#shadow)">
    <ellipse cx="52" cy="50" rx="66" ry="48" fill="#f1d375"/>
    <g fill="#d9b85f">
      <ellipse cx="20" cy="45" rx="20" ry="14" transform="rotate(-14 20 45)"/>
      <ellipse cx="52" cy="26" rx="21" ry="15" transform="rotate(19 52 26)"/>
      <ellipse cx="80" cy="48" rx="23" ry="15" transform="rotate(-8 80 48)"/>
      <ellipse cx="48" cy="70" rx="24" ry="15" transform="rotate(12 48 70)"/>
    </g>
    <g fill="#55623b">
      <circle cx="27" cy="28" r="3"/>
      <circle cx="65" cy="55" r="3"/>
      <circle cx="91" cy="32" r="3"/>
      <circle cx="35" cy="73" r="3"/>
    </g>
  </g>
  <g transform="translate(322 75) rotate(13)">
    <path d="M39 0a39 39 0 0 1 0 78V0z" fill="#f4cf62"/>
    <path d="M39 8a31 31 0 0 1 0 62" fill="none" stroke="#fff7b5" stroke-width="7"/>
    <path d="M39 0a39 39 0 0 1 0 78" fill="none" stroke="#d96c3b" stroke-width="4"/>
  </g>
</svg>
